<svg xmlns="http://www.w3.org/2000/svg" width="100" height="100" viewBox="0 0 75 75"><defs><clipPath id="a"><path d="M17.49 15.9h39.75v43.5H17.49Zm0 0"/></clipPath></defs><g clip-path="url(#a)"><path fill="currentColor" fill-rule="evenodd" d="M22.21 51.05h3.03c.15 0 .28.13.28.28v7.47c0 .15-.13.28-.28.28h-7.47a.3.3 0 0 1-.28-.28v-7.47c0-.15.12-.28.28-.28h3.03v-4.73c0-.39.31-.7.7-.7h14.77v-4.43c0-.4.31-.71.7-.71.4 0 .71.32.71.7v4.44h15.38c.4 0 .71.31.71.7v5.95l3.69 6.39q.08.15 0 .28a.3.3 0 0 1-.25.14h-8.3q-.17 0-.24-.14a.3.3 0 0 1 0-.28l3.69-6.39v-5.24H37.68v4.08a4.02 4.02 0 1 1-1.41 0v-4.08H22.2ZM30.9 18.3a3.3 3.3 0 0 1 4.93-1.23 3.2 3.2 0 0 1 4.5-.38 4.33 4.33 0 0 1 6.24 1.45 4.1 4.1 0 0 1 3.3 3.58 3.74 3.74 0 0 1 1.41 4.37q.62.88.63 2.02-.01 1.14-.67 2.03.2.64.2 1.33a4.2 4.2 0 0 1-3.7 4.16 3.5 3.5 0 0 1-2.53 1.71l.53.92a2.5 2.5 0 0 1-4.34 2.5l-1.17-2.03a3 3 0 0 1-2.52-.8 5.4 5.4 0 0 1-1.72-3.14A4.3 4.3 0 0 1 34 33.9a2.98 2.98 0 0 1-4.95-1.08 3 3 0 0 1-2.48-1.11h-.21a3.24 3.24 0 0 1-3.02-4.42 3.34 3.34 0 0 1 1.8-4.42 3.3 3.3 0 0 1 3.25-2.7h.15a3.3 3.3 0 0 1 2.35-1.88M28.11 31.2c.37.21.83.27 1.27.13q.31-.09.6.09.28.19.31.52c.07.81.75 1.45 1.57 1.45q.73-.02 1.2-.55a4.3 4.3 0 0 1-.69-2.33.71.71 0 0 1 1.42 0 2.9 2.9 0 0 0 3.82 2.77.7.7 0 0 1 .87.42c.2.5.72.77 1.32.77.65 0 1.2-.38 1.43-.93a.7.7 0 0 1 1.36.29 2.1 2.1 0 0 0 3.45 1.64 4.2 4.2 0 0 1-2.97-4.01.7.7 0 1 1 1.41 0 2.77 2.77 0 1 0 5.54 0c0-1.16-.65-2.24-1.9-2.24a.7.7 0 1 1 0-1.41c.95 0 1.72.34 2.27.9q.1-.3.1-.61c0-.56-.22-1.07-.56-1.45a.7.7 0 0 1-.1-.8q.24-.48.25-1.05c0-.88-.5-1.65-1.24-2.06a.7.7 0 0 1-.37-.6 2.7 2.7 0 0 0-1.37-2.34l.02.44q-.02 1.32-.69 2.36a.7.7 0 1 1-1.19-.77q.46-.7.47-1.59a2.92 2.92 0 0 0-4.51-2.45q.3.65.3 1.4c0 .38-.3.7-.7.7s-.7-.32-.7-.7a1.82 1.82 0 0 0-3.5-.74.7.7 0 0 1-.56.42.7.7 0 0 1-.65-.27 1.9 1.9 0 1 0-2.94 2.4.7.7 0 0 1-.06.99.7.7 0 0 1-1-.06 3.3 3.3 0 0 1-.82-2c-.43.26-.75.69-.87 1.19a.7.7 0 0 1-.32.44.7.7 0 0 1-.54.08q-.22-.05-.45-.05a1.9 1.9 0 0 0-1.89 1.84.7.7 0 0 1-.54.68 1.93 1.93 0 0 0-1.21 2.84c.1.2.11.46 0 .67a1.83 1.83 0 1 0 3.33 1.46.7.7 0 0 1 1.34.46q-.38 1.07-1.3 1.67m2.58-1.01.07-.2a2.12 2.12 0 1 0-4.01-1.38.4.4 0 0 1-.4.27c-.31 0-.49-.34-.34-.62.33-.63.32-1.38-.02-2-.17-.3-.06-.7.29-.79a2.1 2.1 0 0 0 1.63-2 .5.5 0 0 1 .48-.48q.06 0 .11.02c.55.13 1.14.04 1.62-.25l.08-.06.12.15a2.12 2.12 0 1 0 3.2-2.8.5.5 0 0 1-.13-.32.48.48 0 0 1 .86-.28 2.12 2.12 0 0 0 3.64-.43q.12-.23.38-.24a.4.4 0 0 1 .41.4 2.12 2.12 0 1 0 4.25 0q0-.22-.03-.44a1.5 1.5 0 0 1 1.15 2.32 2.13 2.13 0 0 0 3.5 2.41q.24.31.6.5c.3.17.52.47.52.83q0 .22-.1.4-.3.59-.23 1.2l-.22-.01a2.13 2.13 0 0 0 0 4.24c.4 0 .49.45.49.83a1.36 1.36 0 0 1-2.72 0 2.12 2.12 0 1 0-4.24 0v.25c-.74.08-1.42.56-1.72 1.28q-.04.07-.13.07h-.05a2.1 2.1 0 0 0-2.57-1.12 1.5 1.5 0 0 1-1.97-1.42 2.12 2.12 0 0 0-4.25-.13q-.08-.08-.2-.15zm6.26-7.34a3.3 3.3 0 0 0-3.9 4.34.7.7 0 0 0 1.34-.48 1.9 1.9 0 0 1 2.23-2.48.7.7 0 0 0 .85-.53.7.7 0 0 0-.52-.85m4.29 1.07a2.46 2.46 0 0 1-.17 3.27.7.7 0 0 0-.01 1 .7.7 0 0 0 1 .01 3.9 3.9 0 0 0 .27-5.18.7.7 0 0 0-1-.1c-.3.25-.34.7-.1 1M37.4 34.79l.05.21c.18.66.6 1.38 1.16 1.86.47.4 1.05.63 1.68.38a.7.7 0 0 1 .87.3l1.45 2.51a1.09 1.09 0 1 0 1.88-1.09l-1.04-1.8a3.5 3.5 0 0 1-1.95-1.8q-.74.53-1.7.54c-1 0-1.85-.42-2.35-1.12zm0 0"/></g></svg>