<svg xmlns="http://www.w3.org/2000/svg" width="100" height="100" viewBox="0 0 75 75"><defs><clipPath id="a"><path d="M13.96 10.1h47.25v54.74H13.96Zm0 0"/></clipPath></defs><g clip-path="url(#a)"><path fill="currentColor" fill-rule="evenodd" d="M44.72 28.21a3 3 0 0 1 2.96 3v7q.57-.26 1.23-.26a3 3 0 0 1 2.5 1.32 3 3 0 0 1 1.75-.56 3 3 0 0 1 2.8 1.91 3 3 0 0 1 4.43 2.64v9.5c.1 2.7-1.03 5.56-2.91 7.05v2.46a2.6 2.6 0 0 1-2.6 2.6h-8.82a2.6 2.6 0 0 1-2.6-2.6v-1.06l-.96-.54-.01-.01a8 8 0 0 1-2.89-3.21l-.03-.08-3.28-8.12a3 3 0 0 1-.24-1.86q.17-.89 1.06-1.63l.04-.03 4.53-3.25V31.22a3 3 0 0 1 3-3zm-1.28 3V48.2a.88.88 0 1 1-1.76 0v-3.54l-3.47 2.5q-.36.28-.44.62-.07.36.13.77l.02.03 3.27 8.1a6 6 0 0 0 2.2 2.47l1.4.8c.27.15.44.44.44.76v1.57c0 .46.37.84.83.84h8.82c.46 0 .83-.38.83-.84v-2.91c0-.3.15-.58.4-.74 1.68-1.09 2.6-3.54 2.52-5.81v-9.55a1.23 1.23 0 0 0-1.24-1.24c-.68 0-1.23.55-1.23 1.24v1.57a.88.88 0 1 1-1.77 0V41.7a1.24 1.24 0 0 0-2.47 0v1.57a.88.88 0 1 1-1.77 0v-2.33a1.24 1.24 0 0 0-2.47-.02v1.59a.88.88 0 1 1-1.77 0v-11.3c0-.68-.54-1.23-1.21-1.24h-.02c-.68 0-1.24.56-1.24 1.24m-26.2 14.43a23.54 23.54 0 0 1 33.3-31.56.88.88 0 0 1-.97 1.47A21.78 21.78 0 0 0 18.9 44.97l.46-1.82a.88.88 0 1 1 1.71.44l-.96 3.75a1 1 0 0 1-.41.54 1 1 0 0 1-.68.08l-3.72-1.03a.88.88 0 1 1 .47-1.7ZM56.2 22.52l-.45 1.77a.88.88 0 1 1-1.71-.44L55 20.1q.09-.35.41-.54.32-.18.68-.09l3.72 1.04c.47.13.74.62.61 1.09a.9.9 0 0 1-1.08.61l-1.52-.42a23.4 23.4 0 0 1 2.63 17.09.88.88 0 0 1-1.72-.4q.53-2.33.53-4.82c0-4.07-1.12-7.88-3.06-11.14m-19.3 32.9c.48.01.86.42.85.9a.9.9 0 0 1-.9.86 23.4 23.4 0 0 1-12.4-3.94.88.88 0 1 1 .98-1.47c3.3 2.2 7.23 3.53 11.46 3.64m-1.7-5.96a.88.88 0 1 1-1.7.47l-.75-2.73q-2.56-.91-4.6-2.66l-2.75.71a.9.9 0 0 1-.89-.27 17 17 0 0 1-3.31-5.74.9.9 0 0 1 .2-.9l2-2.03a14 14 0 0 1 0-5.31l-2-2.02a.9.9 0 0 1-.2-.9 17 17 0 0 1 3.31-5.74.9.9 0 0 1 .89-.28l2.74.71a14 14 0 0 1 4.6-2.65l.76-2.74a.9.9 0 0 1 .68-.63 17 17 0 0 1 6.63 0 .9.9 0 0 1 .68.63l.76 2.74a15 15 0 0 1 4.6 2.65l2.74-.7a.9.9 0 0 1 .89.27 17 17 0 0 1 3.31 5.73.9.9 0 0 1-.2.91l-2 2.02a14 14 0 0 1 0 5.32l.55.57a.9.9 0 0 1-.03 1.25.9.9 0 0 1-1.25-.03l-.86-.9a.9.9 0 0 1-.22-.8c.4-1.82.4-3.7 0-5.5-.07-.3.02-.6.23-.81l1.93-1.96a16 16 0 0 0-2.44-4.23l-2.66.7a.9.9 0 0 1-.82-.22 13 13 0 0 0-4.76-2.74.9.9 0 0 1-.59-.6l-.73-2.66a16 16 0 0 0-4.89 0l-.73 2.65a.9.9 0 0 1-.59.6 13 13 0 0 0-4.75 2.75.9.9 0 0 1-.82.21l-2.66-.69a16 16 0 0 0-2.45 4.23l1.93 1.96c.21.21.3.52.23.81-.4 1.8-.4 3.68 0 5.5.07.29-.02.6-.23.8l-1.93 1.97a16 16 0 0 0 2.45 4.22l2.66-.69a.9.9 0 0 1 .82.2 13 13 0 0 0 4.75 2.76q.45.15.59.6Zm4.2-8.39a.88.88 0 0 1 .44 1.71 9.44 9.44 0 0 1-11.76-9.12 9.42 9.42 0 0 1 15-7.58.88.88 0 0 1-1.05 1.42 7.65 7.65 0 1 0-2.63 13.57m-5.15-6.9a.88.88 0 0 1 1.26-1.23l1.19 1.2 2.78-2.84a.88.88 0 0 1 1.26 1.23l-3.42 3.49a.9.9 0 0 1-1.26 0Zm0 0"/></g></svg>