<svg xmlns="http://www.w3.org/2000/svg" width="100" height="100" viewBox="0 0 75 75"><defs><clipPath id="a"><path d="M12.79 16h49.5v35h-49.5Zm0 0"/></clipPath></defs><g clip-path="url(#a)"><path fill="currentColor" fill-rule="evenodd" d="M58.64 50.71H16.35a3.56 3.56 0 0 1-3.56-3.57V19.82a3.56 3.56 0 0 1 3.56-3.57h42.3c1.97 0 3.56 1.6 3.56 3.57v27.32c0 1.98-1.6 3.57-3.57 3.57m-42.29-33.3c-1.3 0-2.4 1.07-2.4 2.4v27.33c0 1.34 1.1 2.41 2.4 2.41h42.3a2.4 2.4 0 0 0 2.4-2.4V19.81a2.4 2.4 0 0 0-2.4-2.41Zm0 0"/></g><path fill="currentColor" fill-rule="evenodd" d="M57.6 44.53H17.43a2.2 2.2 0 0 1-2.24-2.2V20.98c0-1.16 1.02-2.12 2.24-2.12H57.6c1.22 0 2.2.96 2.2 2.12v21.35c0 1.24-.95 2.2-2.2 2.2M17.43 20.02c-.59 0-1.08.44-1.08.96v21.35c0 .67.55 1.04 1.08 1.04H57.6c.52 0 1.04-.37 1.04-1.04V20.98c0-.52-.46-.96-1.04-.96ZM37.5 48.8a1.8 1.8 0 0 1-1.83-1.74c0-.99.84-1.83 1.83-1.83 1.02 0 1.86.84 1.86 1.83 0 .96-.82 1.74-1.86 1.74m0-2.4a.7.7 0 0 0-.67.66c0 .37.35.58.67.58.35 0 .7-.2.7-.58a.7.7 0 0 0-.7-.67m6.03 9.95h-12.8a.6.6 0 0 1-.57-.58v-5.63c0-.32.26-.58.58-.58h12.8c.31 0 .57.26.57.58v5.63c0 .32-.26.58-.58.58m-12.21-1.16h11.63v-4.47H31.32Zm0 0"/><path fill="currentColor" fill-rule="evenodd" d="M47.82 58.75H26.5c-.7 0-1.24-.55-1.24-1.28v-1.04c0-.73.55-1.28 1.24-1.28h21.32c.73 0 1.28.55 1.28 1.28v1.04c0 .73-.55 1.28-1.28 1.28M26.5 56.3q-.08 0-.08.12v1.04q0 .13.08.12h21.32q.13 0 .12-.12v-1.04q0-.13-.12-.12Zm-4.14-22.38a.7.7 0 0 1-.41-.15.6.6 0 0 1-.03-.81l5.89-6.38c.23-.24.58-.26.81-.03.24.2.26.58.03.8l-5.89 6.4a.6.6 0 0 1-.4.17m11.66-3.95a.4.4 0 0 1-.3-.11l-4.17-2.7a.55.55 0 0 1-.14-.79c.17-.29.52-.34.78-.17l4.15 2.7c.28.17.34.52.17.81a.6.6 0 0 1-.49.26m1.74-.2a.6.6 0 0 1-.4-.18c-.24-.23-.21-.57 0-.8l4.93-4.85c.23-.2.6-.2.8.02.24.24.24.59 0 .82l-4.93 4.81c-.08.12-.26.18-.4.18M25.34 44.53h-4.72a.6.6 0 0 1-.58-.58v-4.52c0-.32.26-.58.58-.58h4.72c.32 0 .59.26.59.58v4.52c0 .32-.27.58-.59.58m-4.14-1.16h3.57v-3.36H21.2Zm10.61 1.22H27.1a.6.6 0 0 1-.59-.58V32.1c0-.32.27-.58.59-.58h4.72c.32 0 .58.26.58.58v11.92c0 .32-.26.58-.58.58m-4.15-1.16h3.57V32.67h-3.57Zm10.7 1.15h-4.73a.56.56 0 0 1-.58-.58v-9.98c0-.35.26-.58.58-.58h4.73c.32 0 .58.23.58.58v9.98c0 .35-.26.58-.58.58m-4.15-1.13h3.57v-8.88h-3.57Zm10.71 1.13h-4.7a.6.6 0 0 1-.59-.58v-15.6a.6.6 0 0 1 .59-.59h4.7c.31 0 .57.27.57.59V44c0 .32-.26.58-.57.58m-4.13-1.16h3.54V28.98H40.8Zm0 0"/><path fill="currentColor" fill-rule="evenodd" d="M21.66 35.95c-.9 0-1.62-.76-1.62-1.74 0-.9.72-1.63 1.62-1.63.98 0 1.74.7 1.74 1.63a1.7 1.7 0 0 1-1.74 1.74m0-2.2c-.23 0-.46.2-.46.46 0 .34.2.58.46.58.38 0 .58-.24.58-.58 0-.26-.23-.47-.58-.47M29 27.82c-.99 0-1.71-.72-1.71-1.7 0-.94.75-1.66 1.71-1.66.93 0 1.65.72 1.65 1.65 0 .96-.72 1.71-1.65 1.71m0-2.2c-.32 0-.58.2-.58.5 0 .34.23.57.58.57.29 0 .5-.26.5-.58a.5.5 0 0 0-.5-.49m6 5.98c-.9 0-1.65-.73-1.65-1.63 0-.93.78-1.74 1.65-1.74.9 0 1.75.84 1.75 1.74 0 .87-.82 1.62-1.75 1.62m0-2.2c-.23 0-.49.28-.49.57 0 .26.23.46.5.46.26 0 .58-.23.58-.46 0-.26-.32-.58-.59-.58m6.27-4.25c-.9 0-1.63-.73-1.63-1.63 0-.98.7-1.74 1.63-1.74.96 0 1.74.79 1.74 1.74 0 .87-.81 1.63-1.74 1.63m0-2.2c-.26 0-.47.22-.47.57 0 .26.2.46.47.46.29 0 .58-.23.58-.46 0-.35-.3-.58-.58-.58M51.8 33.63A5.6 5.6 0 0 1 47.82 32a5.64 5.64 0 0 1 0-7.95 5.62 5.62 0 0 1 9.57 3.97 5.6 5.6 0 0 1-5.59 5.6m0-10.04a4.4 4.4 0 0 0-4.44 4.44c0 2.5 1.94 4.43 4.44 4.43a4.44 4.44 0 0 0 0-8.87m0 0"/><path fill="currentColor" fill-rule="evenodd" d="M56.82 28.6H51.8a.6.6 0 0 1-.58-.57V23a.58.58 0 0 1 1.16 0v4.44h4.44a.58.58 0 1 1 0 1.16m0 0"/><path fill="currentColor" fill-rule="evenodd" d="M48.12 32.09a.6.6 0 0 1-.4-.18c-.24-.23-.21-.6.02-.84l3.65-3.45a.57.57 0 0 1 .82 0 .6.6 0 0 1 0 .84l-3.69 3.45a.6.6 0 0 1-.4.18m5.42 4.81h-5.72c-.31 0-.55-.26-.55-.58s.24-.58.55-.58h5.72a.58.58 0 1 1 0 1.16m0 2.44h-5.72c-.31 0-.55-.26-.55-.58s.24-.58.55-.58h5.72a.58.58 0 0 1 0 1.16m0 2.41h-5.72c-.31 0-.55-.26-.55-.58s.24-.58.55-.58h5.72a.58.58 0 1 1 0 1.16m3.66-4.85h-1.54a.58.58 0 0 1 0-1.16h1.54a.58.58 0 0 1 0 1.16m0 2.44h-1.54a.6.6 0 0 1-.58-.58c0-.32.26-.58.58-.58h1.54a.58.58 0 0 1 0 1.16m0 2.41h-1.54a.58.58 0 0 1 0-1.16h1.54c.32 0 .57.26.57.58s-.25.58-.57.58m0 0"/></svg>