<svg xmlns="http://www.w3.org/2000/svg" width="100" height="100" viewBox="0 0 75 75"><defs><clipPath id="a"><path d="M15.07 9H60v56.98H15.07Zm0 0"/></clipPath></defs><g clip-path="url(#a)"><path fill="currentColor" d="M59.09 50.36a2.86 2.86 0 0 0-3.83-.18 2.8 2.8 0 0 0-2.38-1.29c-.77 0-1.48.3-2.02.84l-.09.09q-.15-.23-.36-.44a2.85 2.85 0 0 0-4.03 0l-5.58 5.58c-2.75-.6-4.9-1.23-7.59-2.2a15 15 0 0 0-7.52-.84l.15-.57a1.55 1.55 0 0 0-1.1-1.9l-4.17-1.12a1.55 1.55 0 0 0-1.9 1.1l-3.54 13.2a1.56 1.56 0 0 0 1.1 1.9l4.18 1.12q.2.06.4.06c.68 0 1.31-.46 1.5-1.16l.22-.83a48 48 0 0 0 14.04 2.26c6.31 0 12.47-1.54 16.66-5.73l5.86-5.86a2.85 2.85 0 0 0 0-4.03m-5.2.37q.21.21.32.48l-6.14 6.14a3 3 0 0 0-1.3-1.52l5.1-5.1a1.44 1.44 0 0 1 2.02 0m-6.5-.35q.42-.41 1.01-.42a1.4 1.4 0 0 1 1.33.9l-4.6 4.6a20 20 0 0 1-2.63-.19Zm-26.62 13.9-4.18-1.12q-.05-.02-.08-.06t-.01-.1l3.54-13.2q.03-.1.13-.1h.03l4.18 1.12q.06.02.08.06t.02.1l-3.54 13.2a.13.13 0 0 1-.17.1M58.1 53.4l-5.86 5.86c-3.18 3.17-8 5-13.98 5.28a45 45 0 0 1-15.35-2.18l2.39-8.93a14 14 0 0 1 7.44.67 58 58 0 0 0 8.04 2.32c1.5.32 2.96.47 4.61.47a1.43 1.43 0 0 1 0 2.87c-3.26 0-8.8-1.22-11.58-2.31a.7.7 0 0 0-.91.4.7.7 0 0 0 .4.92c2.89 1.14 8.67 2.4 12.1 2.4 1.2 0 2.22-.73 2.64-1.78l.08-.07 7.94-7.94a1.43 1.43 0 0 1 2.03 2.03M22.03 28.92l2.97.45q.39 1.28 1.02 2.45l-1.78 2.42a.7.7 0 0 0 .07.92l3.89 3.9a.7.7 0 0 0 .92.06l2.42-1.78q.57.3 1.17.55.19.89.22 1.83a2.56 2.56 0 0 0-1.02 4.3 2.55 2.55 0 0 0 1.7 4.42v1.14a2.57 2.57 0 0 0 2.55 2.56h3.46a2.56 2.56 0 0 0 2.56-2.56v-1.14a2.57 2.57 0 0 0 1.7-4.42 2.55 2.55 0 0 0-1.03-4.3q.04-.95.23-1.83.6-.25 1.17-.55l2.42 1.78a.7.7 0 0 0 .92-.07l3.89-3.89a.7.7 0 0 0 .07-.92l-1.78-2.42q.63-1.17 1.01-2.45l2.97-.45a.7.7 0 0 0 .6-.7v-5.5a.7.7 0 0 0-.6-.7l-2.97-.45q-.39-1.28-1.01-2.46l1.78-2.41a.7.7 0 0 0-.07-.93l-3.89-3.88a.7.7 0 0 0-.92-.07l-2.42 1.78q-1.18-.63-2.46-1.02l-.45-2.97a.7.7 0 0 0-.7-.6h-5.5a.7.7 0 0 0-.7.6L34 12.58q-1.28.39-2.45 1.02l-2.42-1.78a.7.7 0 0 0-.92.07l-3.9 3.88a.7.7 0 0 0-.06.93l1.78 2.41q-.63 1.18-1.02 2.46l-2.96.45a.7.7 0 0 0-.61.7v5.5c0 .35.25.64.6.7m19.4 10.69h-.29v-5.27l3.23-3.24a.7.7 0 0 0 .21-.5v-1.93a2.7 2.7 0 1 0-1.42 0v1.64l-3.23 3.23a.7.7 0 0 0-.2.5v5.57H38.6V28.67a2.7 2.7 0 0 0-.7-5.3 2.7 2.7 0 0 0-.72 5.3V39.6h-1.12v-5.57a.7.7 0 0 0-.2-.5l-3.24-3.23v-1.64a2.7 2.7 0 1 0-1.42 0v1.93q0 .3.2.5l3.24 3.24v5.27h-.3a12 12 0 0 0-3.38-7.9 9.54 9.54 0 1 1 13.87 0 12 12 0 0 0-3.4 7.9m2.44-12.27a1.27 1.27 0 1 1 0-2.55 1.27 1.27 0 0 1 0 2.55m-5.98 0a1.28 1.28 0 1 1 0-2.55 1.28 1.28 0 0 1 0 2.55m-5.98 0a1.27 1.27 0 1 1 0-2.55 1.27 1.27 0 0 1 0 2.55m7.7 23.39h-3.45c-.62 0-1.14-.52-1.14-1.15v-1.14h5.74v1.14c0 .63-.51 1.15-1.14 1.15m2.5-3.71h-8.43a1.14 1.14 0 1 1 0-2.29h8.43a1.14 1.14 0 1 1 0 2.29m1.14-4.85c0 .63-.51 1.14-1.14 1.14h-8.43a1.14 1.14 0 1 1 0-2.29h8.43c.63 0 1.14.52 1.14 1.15m-20.4-18.84 2.81-.43a.7.7 0 0 0 .59-.52q.4-1.56 1.22-2.96a.7.7 0 0 0-.04-.78l-1.69-2.3 3.03-3.02 2.3 1.7c.22.16.53.17.77.03q1.4-.81 2.96-1.23a.7.7 0 0 0 .52-.58l.43-2.81h4.28l.43 2.81a.7.7 0 0 0 .52.58q1.56.43 2.96 1.23c.24.14.55.13.78-.04l2.3-1.69 3.02 3.02-1.69 2.3a.7.7 0 0 0-.04.78q.81 1.39 1.23 2.96c.07.27.3.48.58.52l2.81.43v4.28l-2.81.43a.7.7 0 0 0-.58.51 12 12 0 0 1-1.23 2.97.7.7 0 0 0 .04.77l1.69 2.3-3.02 3.03-2.3-1.7a.7.7 0 0 0-.78-.03l-.3.16q.75-1.8 2.22-3.36a10.96 10.96 0 0 0-7.97-18.45 10.96 10.96 0 0 0-7.96 18.45 11 11 0 0 1 2.21 3.36l-.3-.16a.7.7 0 0 0-.77.04l-2.3 1.69-3.03-3.03 1.7-2.3a.7.7 0 0 0 .03-.77q-.81-1.4-1.22-2.97a.7.7 0 0 0-.58-.51l-2.82-.43Zm0 0"/></g></svg>