<svg xmlns="http://www.w3.org/2000/svg" width="100" height="100" viewBox="0 0 75 75"><defs><clipPath id="a"><path d="M31 11.13h13V38H31Zm0 0"/></clipPath><clipPath id="b"><path d="M45 11.13h16.68V38H45Zm0 0"/></clipPath><clipPath id="c"><path d="M13.68 11.13H31V38H13.68Zm0 0"/></clipPath><clipPath id="d"><path d="M25 38h25v25.63H25Zm0 0"/></clipPath></defs><path fill="currentColor" d="M16.37 16.8h6.68v1.3h-6.68Zm0 2.62h6.68v1.3h-6.68Zm2.18 2.62h4.5v1.3h-4.5Zm-2.18 0h1.17v1.3h-1.17Zm0-7.64H20v1.3h-3.63Zm0 0"/><g clip-path="url(#a)"><path fill="currentColor" d="M32.12 26.29h5v6.98h-1.14a.53.53 0 0 0-.46.79l1.8 3.12c.2.36.72.36.92 0l1.8-3.12a.53.53 0 0 0-.45-.8h-1.16V26.3h4.45c.36 0 .65-.3.65-.65V14.96l-.01-.04-.01-.04v-.02l-.02-.03-.01-.04v-.02l-.02-.03-.03-.04v-.01l-.02-.03-.03-.04h-.01l-.03-.04-3.27-3.27-.03-.02v-.01l-.04-.03-.04-.02v-.01l-.04-.02-.04-.02-.05-.02-.04-.01-.05-.01-.04-.01h-7.6a.65.65 0 0 0-.65.64v13.87c0 .36.3.65.66.65m9.18-11.9-1.04-.02v-1.03Zm-8.53-1.96h6.2v2.6c0 .35.28.64.64.64l2.62.02v9.3h-9.46Zm0 0"/></g><path fill="currentColor" d="M36.34 16.8h4.48v1.3h-4.48Zm-2.19 0h1.18v1.3h-1.18Zm0 2.62h6.67v1.3h-6.67Zm0 2.62h6.67v1.3h-6.67Zm0-7.64h3.63v1.3h-3.63Zm0 0"/><g clip-path="url(#b)"><path fill="currentColor" d="M61.3 15.01v-.09l-.01-.04v-.02l-.02-.03-.01-.04-.01-.02-.02-.03-.02-.04v-.01l-.03-.03-.02-.04h-.01l-.03-.04-3.27-3.27-.03-.02v-.01l-.04-.03-.04-.02-.04-.03-.04-.02h-.01l-.04-.02-.04-.01h-.01l-.04-.01-.04-.01h-7.59a.65.65 0 0 0-.64.64v13.87c0 .36.29.65.65.65h5.3v1.23c0 .86-.7 1.55-1.55 1.55h-4.08a2.85 2.85 0 0 0-2.86 2.86v1.34h-1.15c-.4 0-.67.44-.46.79l1.8 3.12c.2.36.72.36.92 0l1.8-3.12a.53.53 0 0 0-.45-.8h-1.15v-1.33c0-.86.7-1.55 1.55-1.55h4.08a2.86 2.86 0 0 0 2.85-2.86v-1.23h4.16c.36 0 .65-.3.65-.65zm-2.22-.63h-1.04v-1.04Zm-8.53 10.6V12.43h6.2v2.6c0 .35.28.64.64.64l2.62.02v9.3Zm0 0"/></g><path fill="currentColor" d="M51.93 16.8h6.68v1.3h-6.68Zm5.47 2.62h1.2v1.3h-1.2Zm-5.47 0h4.6v1.3h-4.6Zm0 2.62h6.68v1.3h-6.68Zm0-7.64h3.63v1.3h-3.63Zm0 0"/><g clip-path="url(#c)"><path fill="currentColor" d="M27.55 31.93v1.34h-1.16c-.4 0-.66.44-.46.79l1.8 3.12c.21.36.72.36.93 0l1.8-3.12a.53.53 0 0 0-.46-.8h-1.15v-1.33a2.86 2.86 0 0 0-2.86-2.86h-4.08c-.86 0-1.55-.7-1.55-1.55v-1.23h4.74c.36 0 .65-.3.65-.65V14.96l-.01-.04-.01-.04v-.02l-.02-.03-.01-.04v-.02l-.02-.03-.03-.04-.02-.04-.03-.04h-.01l-.03-.04-3.27-3.26q0-.03-.03-.03v-.01l-.04-.03-.04-.02-.04-.03-.04-.02h-.01l-.04-.02-.04-.01H22l-.04-.01-.04-.01h-7.59a.65.65 0 0 0-.64.64v13.87c0 .36.29.65.65.65h4.72v1.23a2.86 2.86 0 0 0 2.85 2.86h4.08c.86 0 1.56.69 1.56 1.55m-4.03-17.55h-1.04v-1.04Zm-8.53-1.95h6.2v2.6c0 .35.28.64.64.64l2.62.02v9.3h-9.46Zm0 0"/></g><g clip-path="url(#d)"><path fill="currentColor" d="M48.74 40.95a10 10 0 0 0-2.78-1.27 30 30 0 0 0-8.46-1.08c-3.18 0-6.2.38-8.47 1.08q-1.76.54-2.78 1.27c-1.02.73-1.24 1.48-1.24 1.97v16.63c0 .5.22 1.24 1.24 1.98q1.02.72 2.78 1.26a30 30 0 0 0 8.47 1.08 30 30 0 0 0 8.46-1.08 10 10 0 0 0 2.78-1.26c1.03-.74 1.24-1.48 1.24-1.98V42.92c0-.5-.21-1.24-1.24-1.97m-.84 18.6c0 .53-1.05 1.2-2.68 1.7-2.04.61-4.79.96-7.72.96-2.94 0-5.68-.35-7.73-.97-1.63-.5-2.68-1.16-2.68-1.69v-3.18q.83.42 1.94.76c2.28.7 5.29 1.08 8.47 1.08s6.18-.39 8.46-1.08q1.13-.34 1.94-.76Zm0-5.66c0 .53-1.05 1.2-2.68 1.69a28 28 0 0 1-7.72.96c-2.94 0-5.68-.34-7.73-.96-1.63-.5-2.68-1.16-2.68-1.7v-2.82q.83.43 1.94.76c2.28.7 5.29 1.08 8.47 1.08s6.18-.38 8.46-1.08q1.13-.34 1.94-.76Zm0-5.55v.24c0 .53-1.05 1.2-2.68 1.7-2.04.61-4.79.96-7.72.96-2.94 0-5.68-.35-7.73-.97-1.63-.5-2.68-1.16-2.68-1.69V45.4q.83.42 1.94.76c2.28.7 5.29 1.07 8.47 1.07s6.18-.37 8.46-1.07q1.13-.34 1.94-.76Zm-2.68-3.73a28 28 0 0 1-7.72.96c-2.94 0-5.68-.34-7.73-.96-1.63-.5-2.68-1.16-2.68-1.7 0-.52 1.05-1.18 2.68-1.68 2.05-.62 4.8-.97 7.73-.97s5.68.35 7.72.97c1.63.5 2.68 1.16 2.68 1.69s-1.05 1.19-2.68 1.69m0 0"/></g></svg>