<svg xmlns="http://www.w3.org/2000/svg" width="100" height="100" viewBox="0 0 75 75"><defs><clipPath id="a"><path d="M14.77 17.13h45.75v40.5H14.77Zm0 0"/></clipPath></defs><g clip-path="url(#a)"><path fill="currentColor" d="M48.08 30.7q-.67 0-1.22.39-.53.39-.75 1.03H43.2v-.06c0-.64-.45-1.15-1.18-1.32l-.49-.1h4.53q.27 0 .46-.2a.6.6 0 0 0 .19-.45v-1.43a2 2 0 0 0 .82-.5q.17-.18.3-.39a2 2 0 0 0 .3-.92 2 2 0 0 0-.73-1.73 2 2 0 0 0-1.34-.5 2 2 0 0 0-1.67.86 2 2 0 0 0-.38.89 2 2 0 0 0 .08.96 2 2 0 0 0 1.33 1.33v.79H40.6l.5-.81c.4-.63.36-1.32-.09-1.77l-1-1c-.44-.44-1.13-.48-1.76-.08l-1.02.64a7 7 0 0 0-.92-.38l-.26-1.18c-.17-.72-.68-1.18-1.31-1.18h-1.41c-.65 0-1.15.45-1.32 1.18l-.27 1.18a7 7 0 0 0-.91.38l-1.02-.64c-.63-.4-1.32-.36-1.77.09l-1 .99c-.45.45-.48 1.14-.09 1.77l.65 1.02q-.23.45-.4.92l-1.16.27c-.73.16-1.19.67-1.19 1.3v1.42c0 .63.47 1.15 1.2 1.31l1.16.27q.15.47.38.92l-.63 1.01c-.4.63-.37 1.32.08 1.77l1 1c.45.45 1.14.48 1.77.09l1.02-.64q.45.21.91.38l.27 1.17c.17.73.67 1.19 1.32 1.19h1.4c.64 0 1.15-.47 1.32-1.19l.26-1.17q.48-.16.93-.38l1 .64c.64.39 1.33.36 1.78-.1l1-.99c.44-.45.48-1.14.08-1.77l-.5-.8h4.82v.78A2.05 2.05 0 0 0 44 38.77a2 2 0 0 0 .72 1.73 2 2 0 0 0 1.34.5 2 2 0 0 0 .94-.22 2 2 0 0 0 .74-.63 2 2 0 0 0 .37-.9 2 2 0 0 0-.28-1.4 2 2 0 0 0-.3-.38 2 2 0 0 0-.82-.5v-1.43a.6.6 0 0 0-.2-.46.6.6 0 0 0-.45-.19h-4.53l.49-.1c.72-.17 1.19-.69 1.19-1.32v-.06h2.91a2 2 0 0 0 .94 1.15 2.08 2.08 0 0 0 3.09-2.02 2 2 0 0 0-.68-1.32q-.28-.25-.64-.4a2 2 0 0 0-.74-.13m-2.81-4.1q0-.32.23-.56a.8.8 0 0 1 .55-.23q.32 0 .56.23.23.24.23.55t-.23.56a.8.8 0 0 1-.56.23.8.8 0 0 1-.55-.23.8.8 0 0 1-.23-.55m.78 11.54q.32 0 .56.23.23.23.23.56 0 .32-.23.55a.8.8 0 0 1-.56.23.8.8 0 0 1-.55-.23.8.8 0 0 1-.23-.55q0-.33.23-.55a.8.8 0 0 1 .55-.24m-4.14-4.7-.2.08-1.53.35a.6.6 0 0 0-.47.46q-.2.7-.56 1.35a.6.6 0 0 0 .01.66l.84 1.33q.06.09.08.19l-.97.96-.18-.07-1.34-.84a.6.6 0 0 0-.66-.02 6 6 0 0 1-1.34.56.6.6 0 0 0-.46.48l-.35 1.53a.4.4 0 0 1-.08.2h-1.37l-.08-.2-.34-1.53a.6.6 0 0 0-.46-.48 6 6 0 0 1-1.34-.56.6.6 0 0 0-.66.02l-1.34.84a.4.4 0 0 1-.18.07l-.97-.96.07-.19.84-1.33a.6.6 0 0 0 .02-.66 6 6 0 0 1-.56-1.35.6.6 0 0 0-.47-.45l-1.54-.36-.2-.07v-1.37l.2-.08 1.54-.35a.6.6 0 0 0 .47-.46q.2-.7.56-1.34a.6.6 0 0 0-.02-.66l-.84-1.34a.4.4 0 0 1-.07-.18l.97-.97q.1.02.18.08l1.34.83a.6.6 0 0 0 .66.02q.63-.36 1.34-.56.37-.1.46-.47l.34-1.54.09-.18h1.36a.4.4 0 0 1 .08.18l.35 1.54a.6.6 0 0 0 .46.47q.7.2 1.34.56a.6.6 0 0 0 .66-.02l1.34-.83.18-.08.97.97-.08.18-.84 1.34a.6.6 0 0 0 0 .66q.35.64.55 1.35.1.37.47.45l1.54.35q.1.02.19.08Zm6.17.1a.8.8 0 0 1-.56-.23.8.8 0 0 1-.22-.55q0-.33.23-.55a.8.8 0 0 1 .55-.23q.32 0 .56.23.22.23.22.56 0 .32-.23.55a.8.8 0 0 1-.55.23m-14.06-4.92a4 4 0 0 0-1.59.31 4 4 0 0 0-1.34.9 4 4 0 0 0-.9 1.35 4 4 0 0 0 .38 3.88 4.2 4.2 0 0 0 2.64 1.77 4.3 4.3 0 0 0 2.4-.24 5 5 0 0 0 1.34-.9 4.17 4.17 0 0 0 0-5.86 4.2 4.2 0 0 0-2.93-1.21m0 7a2.85 2.85 0 0 1-2.86-2.85 2.86 2.86 0 1 1 2.86 2.85m22.84-18.5H18.14a3.3 3.3 0 0 0-2.37.99q-.48.46-.73 1.08a3 3 0 0 0-.25 1.28v24.58a3.35 3.35 0 0 0 3.35 3.36h13.22q-.24 1.6-.98 3.05h-3.43a6.5 6.5 0 0 0-4.32 1.57 5.5 5.5 0 0 0-1.89 4.2q0 .26.19.45.18.18.45.19h32.23q.27 0 .46-.2a.6.6 0 0 0 .18-.45 5.4 5.4 0 0 0-1.89-4.2 6.5 6.5 0 0 0-4.31-1.56h-3.43q-.75-1.44-1-3.06h13.24a3.35 3.35 0 0 0 3.35-3.35V20.47a3.3 3.3 0 0 0-.98-2.36 3.3 3.3 0 0 0-2.37-.98m-8.81 35.63c2.2 0 4.53 1.34 4.87 3.82l-30.85.01c.33-2.22 2.32-3.83 4.88-3.83ZM31.8 51.47q.65-1.47.87-3.06h9.66q.21 1.58.86 3.06Zm27.12-6.42q0 .41-.16.79a2 2 0 0 1-1.9 1.28H18.14a2 2 0 0 1-1.46-.6 2 2 0 0 1-.6-1.47V20.47a2 2 0 0 1 .6-1.45 2 2 0 0 1 1.46-.61h38.72a2 2 0 0 1 1.46.6 2 2 0 0 1 .6 1.46ZM52.3 21.5H22.7a2.6 2.6 0 0 0-2.38 1.59q-.2.47-.2.98v17.4a2.6 2.6 0 0 0 2.58 2.57h29.6q.51 0 .99-.2a2.5 2.5 0 0 0 1.38-1.38q.2-.48.2-.99v-17.4a2.55 2.55 0 0 0-2.57-2.57m1.28 19.97q0 .27-.1.5a1.3 1.3 0 0 1-.69.68q-.23.1-.49.1H22.7q-.26 0-.5-.1a1.3 1.3 0 0 1-.7-.7q-.08-.21-.08-.48v-17.4q0-.25.1-.49a1.2 1.2 0 0 1 .68-.7q.24-.09.5-.09h29.6a1.2 1.2 0 0 1 .9.38 1.3 1.3 0 0 1 .38.9Zm0 0"/></g></svg>